<svg width="45" height="45" viewBox="0 0 45 45" fill="none" xmlns="http://www.w3.org/2000/svg">
<g filter="url(#filter0_f_2680_119)">
<circle cx="22.5" cy="22.5" r="7.5" fill="#67C9F7" fill-opacity="0.95"/>
</g>
<path d="M19.0625 21.25L20.6875 22.9167L24.3438 19.1667M28 30V19C28 17.5999 28 16.8998 27.7343 16.365C27.5006 15.8946 27.1277 15.5122 26.6691 15.2725C26.1477 15 25.4651 15 24.1 15H18.9C17.5349 15 16.8523 15 16.3309 15.2725C15.8723 15.5122 15.4994 15.8946 15.2657 16.365C15 16.8998 15 17.5999 15 19V30L17.2344 28.3333L19.2656 30L21.5 28.3333L23.7344 30L25.7656 28.3333L28 30Z" stroke="white" stroke-linecap="round" stroke-linejoin="round"/>
<defs>
<filter id="filter0_f_2680_119" x="0" y="0" width="45" height="45" filterUnits="userSpaceOnUse" color-interpolation-filters="sRGB">
<feFlood flood-opacity="0" result="BackgroundImageFix"/>
<feBlend mode="normal" in="SourceGraphic" in2="BackgroundImageFix" result="shape"/>
<feGaussianBlur stdDeviation="7.5" result="effect1_foregroundBlur_2680_119"/>
</filter>
</defs>
</svg>
