<svg width="20" height="15" viewBox="0 0 20 15" fill="none" xmlns="http://www.w3.org/2000/svg">
<path d="M18.8367 6.45338C17.8426 4.51023 16.5096 2.95037 14.834 1.76933C13.1585 0.588291 11.3899 0 9.52446 0C7.65904 0 5.89042 0.588291 4.21489 1.76933C2.53936 2.95037 1.20638 4.51023 0.212234 6.45338C0.0707447 6.75198 0 7.04167 0 7.33136C0 7.62105 0.0707447 7.91074 0.212234 8.20934C1.20266 10.1525 2.53936 11.7124 4.21489 12.8934C5.89042 14.0744 7.66277 14.6627 9.52446 14.6627C11.3899 14.6627 13.1585 14.0744 14.834 12.9023C16.5096 11.7257 17.8462 10.1659 18.8367 8.21379C18.9782 7.9152 19.0489 7.62551 19.0489 7.33581C19.0489 7.04167 18.9782 6.75198 18.8367 6.45338ZM7.24574 2.97266C7.87873 2.215 8.6383 1.83173 9.52446 1.83173C9.66595 1.83173 9.78512 1.88966 9.88566 2.01C9.9862 2.13033 10.0346 2.27294 10.0346 2.4423C10.0346 2.61166 9.9862 2.75428 9.88566 2.87461C9.78512 2.99493 9.66595 3.05287 9.52446 3.05287C8.9138 3.05287 8.39255 3.31137 7.96064 3.82835C7.52873 4.34534 7.31277 4.96928 7.31277 5.70019C7.31277 5.86954 7.26436 6.01216 7.16383 6.13249C7.0633 6.25282 6.94415 6.31076 6.80266 6.31076C6.66117 6.31076 6.54203 6.25282 6.44149 6.13249C6.34096 6.01216 6.29255 5.86954 6.29255 5.70019C6.29255 4.64394 6.60904 3.73476 7.24574 2.97266ZM14.1453 11.4851C12.7229 12.5145 11.1851 13.0316 9.52446 13.0316C7.86755 13.0316 6.32607 12.5145 4.90373 11.4851C3.48138 10.4555 2.30107 9.06949 1.35904 7.33136C2.43511 5.33028 3.7867 3.8328 5.41011 2.83895C4.97819 3.72139 4.76223 4.67514 4.76223 5.70019C4.76223 7.26897 5.22766 8.61045 6.15851 9.72909C7.08936 10.8477 8.21383 11.4004 9.52446 11.4004C10.8351 11.4004 11.9558 10.8433 12.8904 9.72909C13.825 8.6149 14.2867 7.27342 14.2867 5.70019C14.2867 4.67514 14.0708 3.72139 13.6388 2.83895C15.2623 3.8328 16.6101 5.33028 17.6899 7.33136C16.7478 9.06949 15.5638 10.4555 14.1453 11.4851Z" fill="white"/>
</svg>
