<svg width="45" height="45" viewBox="0 0 45 45" fill="none" xmlns="http://www.w3.org/2000/svg">
<g filter="url(#filter0_f_2680_114)">
<circle cx="22.5" cy="22.5" r="7.5" fill="#67C9F7" fill-opacity="0.95"/>
</g>
<path d="M24.6667 20C24.6667 19.5734 24.5039 19.1469 24.1785 18.8215C23.8531 18.4961 23.4265 18.3333 23 18.3333M23 25C25.7614 25 28 22.7614 28 20C28 17.2386 25.7614 15 23 15C20.2386 15 18 17.2386 18 20C18 20.2281 18.0153 20.4526 18.0448 20.6725C18.0935 21.0343 18.1178 21.2152 18.1014 21.3297C18.0844 21.4489 18.0627 21.5131 18.0039 21.6182C17.9475 21.7192 17.8481 21.8186 17.6493 22.0174L13.3905 26.2761C13.2464 26.4203 13.1743 26.4923 13.1228 26.5764C13.0771 26.651 13.0434 26.7323 13.023 26.8173C13 26.9132 13 27.0151 13 27.219V28.6667C13 29.1334 13 29.3667 13.0908 29.545C13.1707 29.7018 13.2982 29.8293 13.455 29.9092C13.6333 30 13.8666 30 14.3333 30H16.3333V28.3333H18V26.6667H19.6667L20.9826 25.3507C21.1814 25.1519 21.2808 25.0525 21.3818 24.9961C21.4869 24.9373 21.5511 24.9156 21.6703 24.8986C21.7848 24.8822 21.9657 24.9065 22.3275 24.9552C22.5474 24.9847 22.7719 25 23 25Z" stroke="white" stroke-linecap="round" stroke-linejoin="round"/>
<defs>
<filter id="filter0_f_2680_114" x="0" y="0" width="45" height="45" filterUnits="userSpaceOnUse" color-interpolation-filters="sRGB">
<feFlood flood-opacity="0" result="BackgroundImageFix"/>
<feBlend mode="normal" in="SourceGraphic" in2="BackgroundImageFix" result="shape"/>
<feGaussianBlur stdDeviation="7.5" result="effect1_foregroundBlur_2680_114"/>
</filter>
</defs>
</svg>
