<svg width="50" height="50" viewBox="0 0 50 50" fill="none" xmlns="http://www.w3.org/2000/svg">
<g filter="url(#filter0_f_2998_58)">
<circle cx="25" cy="25" r="10" fill="#67C9F7" fill-opacity="0.8"/>
</g>
<path d="M28 17.5V30.5C28 30.9647 28 31.197 28.0384 31.3902C28.1962 32.1836 28.816 32.8041 29.6094 32.9619C29.8026 33.0003 30.0349 33.0003 30.4996 33.0003C30.9642 33.0003 31.1974 33.0003 31.3906 32.9619C32.184 32.8041 32.8041 32.1836 32.9619 31.3902C33 31.1987 33 30.9687 33 30.5122V17.4878C33 17.0312 33 16.8009 32.9619 16.6094C32.8041 15.816 32.1836 15.1962 31.3902 15.0384C31.197 15 30.9647 15 30.5 15C30.0353 15 29.8026 15 29.6094 15.0384C28.816 15.1962 28.1962 15.816 28.0384 16.6094C28 16.8026 28 17.0353 28 17.5Z" stroke="white" stroke-linecap="round" stroke-linejoin="round"/>
<path d="M17 17.5V30.5C17 30.9647 17 31.197 17.0384 31.3902C17.1962 32.1836 17.816 32.8041 18.6094 32.9619C18.8026 33.0003 19.0349 33.0003 19.4996 33.0003C19.9642 33.0003 20.1974 33.0003 20.3906 32.9619C21.184 32.8041 21.8041 32.1836 21.9619 31.3902C22 31.1987 22 30.9687 22 30.5122V17.4878C22 17.0312 22 16.8009 21.9619 16.6094C21.8041 15.816 21.1836 15.1962 20.3902 15.0384C20.197 15 19.9647 15 19.5 15C19.0353 15 18.8026 15 18.6094 15.0384C17.816 15.1962 17.1962 15.816 17.0384 16.6094C17 16.8026 17 17.0353 17 17.5Z" stroke="white" stroke-linecap="round" stroke-linejoin="round"/>
<defs>
<filter id="filter0_f_2998_58" x="0" y="0" width="50" height="50" filterUnits="userSpaceOnUse" color-interpolation-filters="sRGB">
<feFlood flood-opacity="0" result="BackgroundImageFix"/>
<feBlend mode="normal" in="SourceGraphic" in2="BackgroundImageFix" result="shape"/>
<feGaussianBlur stdDeviation="7.5" result="effect1_foregroundBlur_2998_58"/>
</filter>
</defs>
</svg>
