<svg width="50" height="50" viewBox="0 0 50 50" fill="none" xmlns="http://www.w3.org/2000/svg">
<g filter="url(#filter0_f_2998_59)">
<circle cx="25" cy="25" r="10" fill="#67C9F7" fill-opacity="0.8"/>
</g>
<path d="M33.346 21.3507L32.9798 21.1469C32.923 21.1153 32.895 21.0994 32.8675 21.083C32.5944 20.9194 32.3643 20.6934 32.1963 20.423C32.1794 20.3958 32.1635 20.3672 32.1309 20.3108C32.0984 20.2545 32.0819 20.226 32.0667 20.1977C31.9161 19.9164 31.8346 19.6029 31.8297 19.2838C31.8292 19.2517 31.8293 19.2189 31.8304 19.1538L31.8376 18.7285C31.849 18.048 31.8548 17.7067 31.7591 17.4004C31.6742 17.1283 31.5321 16.8777 31.3423 16.665C31.1278 16.4246 30.8308 16.2531 30.2363 15.9105L29.7425 15.6259C29.1497 15.2843 28.8532 15.1134 28.5384 15.0483C28.26 14.9907 27.9726 14.9933 27.6952 15.0556C27.382 15.1259 27.0892 15.3012 26.504 15.6517L26.5006 15.6533L26.1468 15.8651C26.0909 15.8986 26.0625 15.9155 26.0345 15.9311C25.7562 16.0858 25.4456 16.1714 25.1273 16.1816C25.0953 16.1826 25.0626 16.1826 24.9974 16.1826C24.9326 16.1826 24.8985 16.1826 24.8665 16.1816C24.5476 16.1713 24.2363 16.0853 23.9576 15.93C23.9295 15.9143 23.9017 15.8973 23.8457 15.8636L23.4896 15.6499C22.9003 15.2961 22.6052 15.1189 22.2904 15.0483C22.0118 14.9858 21.7235 14.9841 21.444 15.0424C21.1285 15.1084 20.8319 15.2805 20.2387 15.6248L20.236 15.6259L19.7484 15.909L19.743 15.9123C19.1551 16.2535 18.8605 16.4245 18.6478 16.6639C18.459 16.8763 18.3179 17.1265 18.2335 17.3979C18.138 17.7046 18.1431 18.0467 18.1546 18.7304L18.1618 19.1551C18.1629 19.2194 18.1647 19.2514 18.1643 19.283C18.1595 19.6027 18.077 19.9169 17.9258 20.1987C17.9109 20.2266 17.8948 20.2544 17.8626 20.3101C17.8305 20.3658 17.8149 20.3935 17.7982 20.4204C17.6295 20.6923 17.3982 20.9196 17.1234 21.0835C17.0962 21.0997 17.0676 21.1153 17.0113 21.1464L16.6497 21.3468C16.0482 21.6802 15.7475 21.847 15.5286 22.0844C15.3351 22.2945 15.1888 22.5436 15.0996 22.8149C14.9987 23.1216 14.9988 23.4655 15.0003 24.1533L15.0016 24.7154C15.0032 25.3986 15.0053 25.7399 15.1064 26.0446C15.1959 26.3141 15.341 26.5617 15.5335 26.7705C15.7511 27.0064 16.0488 27.1722 16.6458 27.5044L17.0042 27.7037C17.0652 27.7376 17.0959 27.7544 17.1253 27.7721C17.3976 27.9361 17.627 28.1628 17.7943 28.4331C17.8123 28.4623 17.8297 28.4926 17.8644 28.5532C17.8987 28.613 17.9162 28.643 17.932 28.673C18.0787 28.9507 18.1572 29.2592 18.1626 29.5732C18.1632 29.6071 18.1627 29.6414 18.1615 29.7104L18.1546 30.1179C18.143 30.804 18.138 31.1474 18.234 31.455C18.319 31.7271 18.4609 31.9777 18.6507 32.1904C18.8652 32.4308 19.1626 32.6022 19.7572 32.9448L20.2509 33.2293C20.8437 33.5709 21.14 33.7416 21.4548 33.8067C21.7332 33.8644 22.0207 33.8621 22.2982 33.7998C22.6118 33.7294 22.9056 33.5535 23.4925 33.2021L23.8463 32.9902C23.9023 32.9567 23.9307 32.9399 23.9587 32.9243C24.237 32.7696 24.5473 32.6836 24.8656 32.6734C24.8976 32.6723 24.9303 32.6723 24.9955 32.6723C25.0609 32.6723 25.0935 32.6723 25.1256 32.6734C25.4445 32.6836 25.7568 32.7699 26.0355 32.9253C26.06 32.9389 26.0846 32.9537 26.1277 32.9796L26.5039 33.2054C27.0932 33.5592 27.3877 33.7359 27.7026 33.8065C27.9811 33.869 28.2697 33.8716 28.5492 33.8132C28.8646 33.7473 29.1618 33.5748 29.7547 33.2307L30.2497 32.9434C30.8379 32.6021 31.1328 32.4309 31.3456 32.1914C31.5344 31.9789 31.6756 31.7288 31.7601 31.4574C31.8549 31.1529 31.8491 30.8135 31.8378 30.1396L31.8304 29.7002C31.8293 29.6358 31.8292 29.6039 31.8297 29.5722C31.8344 29.2525 31.9156 28.9381 32.0667 28.6563C32.0817 28.6285 32.0979 28.6004 32.1299 28.5449C32.1621 28.4892 32.1788 28.4614 32.1955 28.4345C32.3642 28.1627 32.5956 27.9351 32.8704 27.7713C32.8973 27.7553 32.9249 27.74 32.9799 27.7095L32.9818 27.7086L33.3433 27.5083C33.9449 27.1749 34.2462 27.0079 34.465 26.7705C34.6586 26.5604 34.8046 26.3117 34.8939 26.0403C34.9942 25.7354 34.9934 25.3935 34.9919 24.7138L34.9906 24.1396C34.989 23.4564 34.9882 23.1151 34.887 22.8105C34.7976 22.541 34.6516 22.2933 34.4591 22.0846C34.2418 21.8488 33.9436 21.683 33.3478 21.3515L33.346 21.3507Z" stroke="white" stroke-linecap="round" stroke-linejoin="round"/>
<path d="M20.9964 24.4277C20.9964 26.6368 22.7873 28.4277 24.9964 28.4277C27.2056 28.4277 28.9964 26.6368 28.9964 24.4277C28.9964 22.2186 27.2056 20.4277 24.9964 20.4277C22.7873 20.4277 20.9964 22.2186 20.9964 24.4277Z" stroke="white" stroke-linecap="round" stroke-linejoin="round"/>
<defs>
<filter id="filter0_f_2998_59" x="0" y="0" width="50" height="50" filterUnits="userSpaceOnUse" color-interpolation-filters="sRGB">
<feFlood flood-opacity="0" result="BackgroundImageFix"/>
<feBlend mode="normal" in="SourceGraphic" in2="BackgroundImageFix" result="shape"/>
<feGaussianBlur stdDeviation="7.5" result="effect1_foregroundBlur_2998_59"/>
</filter>
</defs>
</svg>
